<svg version="1.1" xmlns="http://www.w3.org/2000/svg" xmlns:xlink="http://www.w3.org/1999/xlink" width="1560" height="804"><defs/><g><path fill="none" stroke="#02063B" paint-order="fill stroke markers" d=" M 20 415.2568416897552 L 21 415.918626620169 L 22 416.5802568993191 L 23 417.2417251757648 L 24 417.9030240998654 L 25 418.56414632386173 L 26 419.22508450195824 L 27 419.8858312904042 L 28 420.54637934757534 L 29 421.2067213340557 L 30 421.8668499127188 L 31 422.5267577488095 L 32 423.18643751002526 L 33 423.8458818665978 L 34 424.5050834913743 L 35 425.16403505989916 L 36 425.82272925049494 L 37 426.48115874434416 L 38 427.1393162255703 L 39 427.7971943813193 L 40 428.4547859018405 L 41 429.11208348056834 L 42 429.76907981420305 L 43 430.42576760279223 L 44 431.0821395498116 L 45 431.73818836224626 L 46 432.3939067506717 L 47 433.04928742933487 L 48 433.70432311623495 L 49 434.3590065332043 L 50 435.01333040598956 L 51 435.6672874643322 L 52 436.32087044204934 L 53 436.9740720771147 L 54 437.626885111739 L 55 438.27930229245084 L 56 438.93131637017706 L 57 439.58292010032363 L 58 440.2341062428557 L 59 440.8848675623784 L 60 441.5351968282172 L 61 442.18508681449794 L 62 442.83453030022747 L 63 443.4835200693738 L 64 444.1320489109462 L 65 444.7801096190752 L 66 445.427694993093 L 67 446.07479783761323 L 68 446.72141096261095 L 69 447.3675271835025 L 70 448.0131393212254 L 71 448.65824020231815 L 72 449.3028226589998 L 73 449.94687952924966 L 74 450.5904036568869 L 75 451.23338789165007 L 76 451.87582508927653 L 77 452.5177081115818 L 78 453.15902982653887 L 79 453.79978310835753 L 80 454.4399608375635 L 81 455.0795559010774 L 82 455.71856119229403 L 83 456.3569696111612 L 84 456.99477406425865 L 85 457.63196746487665 L 86 458.2685427330952 L 87 458.90449279586227 L 88 459.5398105870726 L 89 460.17448904764615 L 90 460.80852112560655 L 91 461.4418997761595 L 92 462.0746179617709 L 93 462.70666865224524 L 94 463.33804482480355 L 95 463.96873946416156 L 96 464.5987455626074 L 97 465.22805612008 L 98 465.85666414424617 L 99 466.4845626505788 L 100 467.11174466243426 L 101 467.7382032111301 L 102 468.36393133602206 L 103 468.988922084582 L 104 469.61316851247454 L 105 470.2366636836348 L 106 470.85940067034505 L 107 471.48137255331187 L 108 472.1025724217429 L 109 472.72299337342383 L 110 473.3426285147948 L 111 473.96147096102743 L 112 474.57951383610083 L 113 475.19675027287826 L 114 475.81317341318356 L 115 476.42877640787697 L 116 477.04355241693156 L 117 477.6574946095091 L 118 478.2705961640361 L 119 478.8828502682792 L 120 479.49425011942145 L 121 480.1047889241374 L 122 480.71445989866885 L 123 481.32325626890014 L 124 481.9311712704334 L 125 482.5381981486638 L 126 483.1443301588545 L 127 483.74956056621147 L 128 484.35388264595883 L 129 484.9572896834129 L 130 485.55977497405735 L 131 486.1613318236173 L 132 486.76195354813393 L 133 487.36163347403874 L 134 487.9603649382276 L 135 488.55814128813483 L 136 489.15495588180715 L 137 489.75080208797743 L 138 490.34567328613844 L 139 490.93956286661626 L 140 491.53246423064394 L 141 492.12437079043457 L 142 492.7152759692548 L 143 493.3051732014975 L 144 493.89405593275507 L 145 494.4819176198922 L 146 495.0687517311183 L 147 495.65455174606046 L 148 496.2393111558356 L 149 496.82302346312304 L 150 497.40568218223643 L 151 497.98728083919593 L 152 498.5678129718004 L 153 499.1472721296986 L 154 499.7256518744615 L 155 500.30294577965344 L 156 500.87914743090363 L 157 501.45425042597736 L 158 502.0282483748474 L 159 502.60113489976453 L 160 503.1729036353289 L 161 503.7435482285604 L 162 504.31306233896953 L 163 504.8814396386274 L 164 505.4486738122367 L 165 506.01475855720116 L 166 506.5796875836963 L 167 507.1434546147386 L 168 507.7060533862558 L 169 508.2674776471562 L 170 508.82772115939827 L 171 509.38677769805986 L 172 509.9446410514074 L 173 510.5013050209649 L 174 511.05676342158284 L 175 511.611010081507 L 176 512.1640388424468 L 177 512.715843559644 L 178 513.2664181019406 L 179 513.8157563518475 L 180 514.363852205612 L 181 514.9106995732858 L 182 515.4562923787926 L 183 516.0006245599958 L 184 516.5436900687655 L 185 517.0854828710463 L 186 517.6259969469237 L 187 518.1652262906912 L 188 518.7031649109173 L 189 519.2398068305116 L 190 519.7751460867918 L 191 520.3091767315494 L 192 520.8418928311161 L 193 521.3732884664294 L 194 521.903357733099 L 195 522.4320947414719 L 196 522.9594936166977 L 197 523.4855484987945 L 198 524.0102535427134 L 199 524.5336029184036 L 200 525.0555908108777 L 201 525.5762114202754 L 202 526.0954589619287 L 203 526.6133276664258 L 204 527.1298117796753 L 205 527.64490556297 L 206 528.1586032930513 L 207 528.6708992621716 L 208 529.1817877781589 L 209 529.6912631644793 L 210 530.1993197603006 L 211 530.7059519205544 L 212 531.2111540159999 L 213 531.7149204332858 L 214 532.2172455750124 L 215 532.7181238597946 L 216 533.2175497223232 L 217 533.715517613427 L 218 534.2120220001347 L 219 534.7070573657359 L 220 535.2006182098428 L 221 535.692699048451 L 222 536.1832944140009 L 223 536.6723988554377 L 224 537.1600069382728 L 225 537.6461132446435 L 226 538.1307123733737 L 227 538.6137989400336 L 228 539.0953675769997 L 229 539.5754129335143 L 230 540.0539296757449 L 231 540.530912486844 L 232 541.0063560670073 L 233 541.4802551335332 L 234 541.9526044208816 L 235 542.4233986807318 L 236 542.8926326820414 L 237 543.3603012111039 L 238 543.8263990716074 L 239 544.2909210846914 L 240 544.753862089005 L 241 545.2152169407641 L 242 545.6749805138084 L 243 546.1331476996584 L 244 546.5897134075724 L 245 547.0446725646027 L 246 547.4980201156523 L 247 547.9497510235308 L 248 548.3998602690107 L 249 548.8483428508825 L 250 549.2951937860114 L 251 549.7404081093913 L 252 550.183980874201 L 253 550.6259071518589 L 254 551.0661820320774 L 255 551.5048006229183 L 256 551.9417580508457 L 257 552.377049460782 L 258 552.8106700161601 L 259 553.2426148989786 L 260 553.6728793098541 L 261 554.1014584680755 L 262 554.5283476116565 L 263 554.9535419973889 L 264 555.3770369008948 L 265 555.7988276166799 L 266 556.2189094581848 L 267 556.637277757838 L 268 557.053927867107 L 269 557.4688551565503 L 270 557.8820550158692 L 271 558.2935228539583 L 272 558.703254098957 L 273 559.1112441983001 L 274 559.5174886187685 L 275 559.9219828465394 L 276 560.3247223872369 L 277 560.7257027659809 L 278 561.1249195274385 L 279 561.5223682358717 L 280 561.9180444751878 L 281 562.3119438489884 L 282 562.7040619806178 L 283 563.0943945132117 L 284 563.4829371097462 L 285 563.8696854530854 L 286 564.2546352460292 L 287 564.6377822113618 L 288 565.0191220918987 L 289 565.3986506505338 L 290 565.7763636702873 L 291 566.1522569543515 L 292 566.5263263261385 L 293 566.8985676293255 L 294 567.2689767279021 L 295 567.6375495062154 L 296 568.0042818690159 L 297 568.3691697415036 L 298 568.7322090693724 L 299 569.0933958188558 L 300 569.4527259767714 L 301 569.8101955505656 L 302 570.1658005683578 L 303 570.519537078985 L 304 570.8714011520451 L 305 571.2213888779407 L 306 571.5694963679232 L 307 571.915719754135 L 308 572.2600551896533 L 309 572.602498848532 L 310 572.9430469258456 L 311 573.2816956377296 L 312 573.6184412214243 L 313 573.9532799353155 L 314 574.2862080589765 L 315 574.6172218932094 L 316 574.9463177600859 L 317 575.2734920029889 L 318 575.5987409866523 L 319 575.9220610972018 L 320 576.2434487421951 L 321 576.5629003506617 L 322 576.8804123731425 L 323 577.1959812817295 L 324 577.5096035701046 L 325 577.821275753579 L 326 578.1309943691317 L 327 578.438755975448 L 328 578.7445571529574 L 329 579.0483945038725 L 330 579.3502646522256 L 331 579.6501642439073 L 332 579.9480899467027 L 333 580.2440384503295 L 334 580.5380064664739 L 335 580.8299907288279 L 336 581.1199879931245 L 337 581.4079950371752 L 338 581.6940086609045 L 339 581.9780256863863 L 340 582.2600429578788 L 341 582.5400573418597 L 342 582.8180657270607 L 343 583.0940650245029 L 344 583.3680521675302 L 345 583.6400241118437 L 346 583.9099778355358 L 347 584.1779103391235 L 348 584.4438186455816 L 349 584.7076998003763 L 350 584.9695508714973 L 351 585.229368949491 L 352 585.4871511474926 L 353 585.7428946012581 L 354 585.996596469196 L 355 586.2482539323996 L 356 586.4978641946773 L 357 586.7454244825842 L 358 586.9909320454531 L 359 587.2343841554247 L 360 587.475778107478 L 361 587.7151112194606 L 362 587.952380832118 L 363 588.1875843091238 L 364 588.4207190371083 L 365 588.651782425688 L 366 588.8807719074945 L 367 589.1076849382023 L 368 589.3325189965581 L 369 589.5552715844078 L 370 589.7759402267251 L 371 589.9945224716383 L 372 590.2110158904583 L 373 590.4254180777045 L 374 590.6377266511331 L 375 590.8479392517617 L 376 591.056053543897 L 377 591.2620672151602 L 378 591.4659779765127 L 379 591.6677835622812 L 380 591.8674817301837 L 381 592.0650702613538 L 382 592.2605469603652 L 383 592.4539096552567 L 384 592.6451561975557 L 385 592.834284462303 L 386 593.021292348075 L 387 593.2061777770084 L 388 593.3889386948226 L 389 593.5695730708425 L 390 593.7480788980214 L 391 593.924454192963 L 392 594.0986969959437 L 393 594.2708053709341 L 394 594.4407774056206 L 395 594.6086112114269 L 396 594.7743049235348 L 397 594.9378567009045 L 398 595.0992647262958 L 399 595.2585272062879 L 400 595.4156423712992 L 401 595.5706084756075 L 402 595.7234237973686 L 403 595.8740866386361 L 404 596.0225953253799 L 405 596.1689482075052 L 406 596.3131436588701 L 407 596.4551800773047 L 408 596.595055884628 L 409 596.7327695266655 L 410 596.8683194732673 L 411 597.0017042183242 L 412 597.1329222797849 L 413 597.2619721996723 L 414 597.3888525440996 L 415 597.5135619032866 L 416 597.636098891575 L 417 597.756462147444 L 418 597.8746503335253 L 419 597.9906621366182 L 420 598.1044962677036 L 421 598.216151461959 L 422 598.3256264787726 L 423 598.4329201017563 L 424 598.5380311387596 L 425 598.6409584218834 L 426 598.7417008074922 L 427 598.8402571762273 L 428 598.9366264330189 L 429 599.0308075070984 L 430 599.1227993520104 L 431 599.2126009456243 L 432 599.3002112901456 L 433 599.3856294121268 L 434 599.4688543624786 L 435 599.5498852164801 L 436 599.6287210737894 L 437 599.7053610584534 L 438 599.7798043189173 L 439 599.8520500280347 L 440 599.9220973830762 L 441 599.9899456057386 L 442 600.0555939421533 L 443 600.1190416628954 L 444 600.1802880629904 L 445 600.2393324619236 L 446 600.2961742036467 L 447 600.3508126565855 L 448 600.4032472136465 L 449 600.4534772922241 L 450 600.5015023342069 L 451 600.5473218059835 L 452 600.5909351984496 L 453 600.6323420270121 L 454 600.6715418315956 L 455 600.7085341766472 L 456 600.743318651141 L 457 600.7758948685835 L 458 600.8062624670168 L 459 600.8344211090238 L 460 600.8603704817306 L 461 600.8841102968113 L 462 600.9056402904903 L 463 600.9249602235459 L 464 600.9420698813121 L 465 600.9569690736821 L 466 600.9696576351091 L 467 600.9801354246094 L 468 600.9884023257633 L 469 600.9944582467162 L 470 600.9983031201805 L 471 600.9999369034351 L 472 600.999359578327 L 473 600.9965711512709 L 474 600.9915716532493 L 475 600.9843611398121 L 476 600.9749396910761 L 477 600.9633074117239 L 478 600.949464431003 L 479 600.9334109027241 L 480 600.9151470052595 L 481 600.8946729415413 L 482 600.8719889390591 L 483 600.8470952498567 L 484 600.8199921505307 L 485 600.7906799422262 L 486 600.7591589506343 L 487 600.7254295259877 L 488 600.6894920430576 L 489 600.6513469011488 L 490 600.6109945240961 L 491 600.5684353602586 L 492 600.5236698825156 L 493 600.4766985882607 L 494 600.4275219993967 L 495 600.3761406623298 L 496 600.3225551479632 L 497 600.2667660516906 L 498 600.2087739933909 L 499 600.148579617419 L 500 600.0861835926012 L 501 600.0215866122259 L 502 599.9547893940364 L 503 599.8857926802237 L 504 599.814597237417 L 505 599.7412038566763 L 506 599.6656133534825 L 507 599.5878265677296 L 508 599.5078443637142 L 509 599.4256676301268 L 510 599.3412972800412 L 511 599.2547342509051 L 512 599.1659795045289 L 513 599.0750340270754 L 514 598.9818988290492 L 515 598.8865749452849 L 516 598.7890634349355 L 517 598.6893653814616 L 518 598.587481892618 L 519 598.4834141004426 L 520 598.3771631612431 L 521 598.2687302555842 L 522 598.1581165882751 L 523 598.0453233883554 L 524 597.9303519090815 L 525 597.8132034279134 L 526 597.6938792464995 L 527 597.5723806906628 L 528 597.4487091103861 L 529 597.3228658797966 L 530 597.1948523971514 L 531 597.064670084821 L 532 596.9323203892743 L 533 596.7978047810622 L 534 596.6611247548009 L 535 596.5222818291561 L 536 596.3812775468257 L 537 596.2381134745224 L 538 596.0927912029564 L 539 595.9453123468185 L 540 595.7956785447609 L 541 595.6438914593798 L 542 595.489952777197 L 543 595.3338642086408 L 544 595.1756274880267 L 545 595.0152443735391 L 546 594.8527166472109 L 547 594.688046114904 L 548 594.5212346062892 L 549 594.3522839748262 L 550 594.1811960977425 L 551 594.0079728760126 L 552 593.8326162343371 L 553 593.6551281211217 L 554 593.4755105084544 L 555 593.2937653920847 L 556 593.1098947914008 L 557 592.9239007494077 L 558 592.7357853327039 L 559 592.5455506314587 L 560 592.353198759389 L 561 592.1587318537358 L 562 591.9621520752407 L 563 591.7634616081214 L 564 591.5626626600474 L 565 591.3597574621165 L 566 591.1547482688286 L 567 590.9476373580615 L 568 590.7384270310454 L 569 590.5271196123374 L 570 590.3137174497955 L 571 590.0982229145527 L 572 589.8806384009904 L 573 589.6609663267121 L 574 589.4392091325165 L 575 589.2153692823699 L 576 588.9894492633797 L 577 588.7614515857658 L 578 588.5313787828335 L 579 588.2992334109449 L 580 588.0650180494906 L 581 587.8287353008611 L 582 587.5903877904179 L 583 587.3499781664641 L 584 587.1075091002155 L 585 586.86298328577 L 586 586.6164034400788 L 587 586.3677723029155 L 588 586.1170926368454 L 589 585.864367227196 L 590 585.6095988820244 L 591 585.3527904320877 L 592 585.0939447308102 L 593 584.8330646542528 L 594 584.5701531010802 L 595 584.3052129925292 L 596 584.0382472723761 L 597 583.7692589069038 L 598 583.4982508848693 L 599 583.2252262174701 L 600 582.9501879383106 L 601 582.6731391033691 L 602 582.3940827909629 L 603 582.1130221017149 L 604 581.8299601585189 L 605 581.5449001065045 L 606 581.2578451130028 L 607 580.9687983675108 L 608 580.6777630816558 L 609 580.3847424891604 L 610 580.089739845806 L 611 579.7927584293965 L 612 579.4938015397225 L 613 579.1928724985243 L 614 578.8899746494544 L 615 578.5851113580418 L 616 578.2782860116529 L 617 577.9695020194551 L 618 577.6587628123789 L 619 577.3460718430783 L 620 577.0314325858948 L 621 576.7148485368166 L 622 576.396323213441 L 623 576.0758601549348 L 624 575.7534629219958 L 625 575.4291350968118 L 626 575.1028802830222 L 627 574.7747021056769 L 628 574.4446042111969 L 629 574.1125902673331 L 630 573.7786639631258 L 631 573.4428290088641 L 632 573.105089136044 L 633 572.765448097327 L 634 572.4239096664991 L 635 572.0804776384283 L 636 571.7351558290223 L 637 571.3879480751868 L 638 571.0388582347821 L 639 570.6878901865804 L 640 570.3350478302232 L 641 569.9803350861775 L 642 569.6237558956925 L 643 569.2653142207553 L 644 568.9050140440477 L 645 568.5428593689011 L 646 568.1788542192527 L 647 567.8130026396003 L 648 567.4453086949579 L 649 567.07577647081 L 650 566.7044100730661 L 651 566.331213628016 L 652 565.9561912822828 L 653 565.5793472027779 L 654 565.2006855766534 L 655 564.8202106112573 L 656 564.4379265340849 L 657 564.0538375927334 L 658 563.6679480548536 L 659 563.2802622081031 L 660 562.8907843600985 L 661 562.4995188383673 L 662 562.1064699903002 L 663 561.7116421831026 L 664 561.3150398037462 L 665 560.9166672589199 L 666 560.5165289749812 L 667 560.114629397907 L 668 559.7109729932439 L 669 559.3055642460589 L 670 558.8984076608897 L 671 558.4895077616939 L 672 558.0788690917996 L 673 557.6664962138545 L 674 557.2523937097751 L 675 556.8365661806963 L 676 556.4190182469196 L 677 555.999754547862 L 678 555.578779742005 L 679 555.156098506842 L 680 554.7317155388268 L 681 554.3056355533215 L 682 553.8778632845435 L 683 553.4484034855138 L 684 553.0172609280035 L 685 552.5844404024809 L 686 552.1499467180588 L 687 551.71378470244 L 688 551.2759592018648 L 689 550.8364750810564 L 690 550.3953372231673 L 691 549.9525505297247 L 692 549.5081199205761 L 693 549.0620503338347 L 694 548.6143467258248 L 695 548.1650140710265 L 696 547.7140573620201 L 697 547.2614816094308 L 698 546.8072918418737 L 699 546.3514931058971 L 700 545.8940904659266 L 701 545.4350890042092 L 702 544.9744938207562 L 703 544.5123100332871 L 704 544.0485427771729 L 705 543.583197205378 L 706 543.1162784884042 L 707 542.6477918142323 L 708 542.1777423882651 L 709 541.706135433269 L 710 541.2329761893164 L 711 540.7582699137276 L 712 540.2820218810117 L 713 539.8042373828088 L 714 539.3249217278303 L 715 538.8440802418011 L 716 538.3617182673993 L 717 537.8778411641973 L 718 537.3924543086025 L 719 536.9055630937974 L 720 536.417172929679 L 721 535.9272892427999 L 722 535.435917476307 L 723 534.9430630898817 L 724 534.4487315596787 L 725 533.9529283782654 L 726 533.455659054561 L 727 532.956929113775 L 728 532.4567440973462 L 729 531.9551095628807 L 730 531.4520310840904 L 731 530.9475142507309 L 732 530.4415646685397 L 733 529.9341879591736 L 734 529.4253897601465 L 735 528.9151757247662 L 736 528.4035515220726 L 737 527.8905228367735 L 738 527.3760953691825 L 739 526.8602748351551 L 740 526.3430669660252 L 741 525.8244775085416 L 742 525.3045122248041 L 743 524.7831768921993 L 744 524.2604773033366 L 745 523.736419265984 L 746 523.211008603003 L 747 522.6842511522847 L 748 522.156152766684 L 749 521.6267193139554 L 750 521.0959566766874 L 751 520.5638707522371 L 752 520.0304674526649 L 753 519.4957527046687 L 754 518.9597324495179 L 755 518.4224126429875 L 756 517.8837992552923 L 757 517.3438982710197 L 758 516.8027156890643 L 759 516.26025752256 L 760 515.7165297988142 L 761 515.1715385592406 L 762 514.6252898592918 L 763 514.0777897683922 L 764 513.5290443698705 L 765 512.979059760892 L 766 512.4278420523913 L 767 511.8753973690038 L 768 511.3217318489982 L 769 510.7668516442079 L 770 510.21076291996275 L 771 509.6534718550207 L 772 509.0949846414989 L 773 508.5353074848051 L 774 507.9744466035686 L 775 507.41240822957127 L 776 506.8491986076781 L 777 506.28482399576797 L 778 505.7192906646641 L 779 505.1526048980643 L 780 504.58477299247136 L 781 504.0158012571228 L 782 503.44569601392095 L 783 502.87446359736265 L 784 502.30211035446877 L 785 501.728642644714 L 786 501.1540668399559 L 787 500.5783893243641 L 788 500.00161649434955 L 789 499.4237547584933 L 790 498.8448105374754 L 791 498.26479026400335 L 792 497.683700382741 L 793 497.1015473502366 L 794 496.5183376348512 L 795 495.93407771668666 L 796 495.3487740875139 L 797 494.7624332507005 L 798 494.1750617211387 L 799 493.5866660251727 L 800 492.9972527005266 L 801 492.40682829623097 L 802 491.8153993725511 L 803 491.22297250091333 L 804 490.62955426383235 L 805 490.0351512548381 L 806 489.43977007840226 L 807 488.84341734986515 L 808 488.246099695362 L 809 487.64782375174957 L 810 487.0485961665321 L 811 486.44842359778795 L 812 485.84731271409464 L 813 485.2452701944561 L 814 484.64230272822743 L 815 484.03841701504086 L 816 483.4336197647315 L 817 482.82791769726254 L 818 482.2213175426507 L 819 481.61382604089147 L 820 481.0054499418842 L 821 480.39619600535707 L 822 479.786071000792 L 823 479.1750817073495 L 824 478.56323491379294 L 825 477.950537418414 L 826 477.33699602895626 L 827 476.7226175625399 L 828 476.10740884558606 L 829 475.4913767137408 L 830 474.8745280117992 L 831 474.2568695936295 L 832 473.63840832209655 L 833 473.01915106898593 L 834 472.3991047149275 L 835 471.77827614931863 L 836 471.15667227024824 L 837 470.5342999844196 L 838 469.9111662070741 L 839 469.28727786191376 L 840 468.66264188102514 L 841 468.0372652048013 L 842 467.4111547818658 L 843 466.7843175689944 L 844 466.1567605310389 L 845 465.5284906408486 L 846 464.8995148791937 L 847 464.2698402346872 L 848 463.6394737037076 L 849 463.00842229032105 L 850 462.37669300620337 L 851 461.7442928705624 L 852 461.11122891005965 L 853 460.4775081587327 L 854 459.8431376579167 L 855 459.20812445616633 L 856 458.5724756091772 L 857 457.93619817970784 L 858 457.29929923750075 L 859 456.66178585920443 L 860 456.0236651282942 L 861 455.384944134994 L 862 454.745629976197 L 863 454.1057297553874 L 864 453.46525058256105 L 865 452.8241995741466 L 866 452.1825838529263 L 867 451.5404105479574 L 868 450.89768679449196 L 869 450.2544197338987 L 870 449.6106165135825 L 871 448.966284286906 L 872 448.32143021310947 L 873 447.6760614572316 L 874 447.03018519002967 L 875 446.38380858790003 L 876 445.7369388327983 L 877 445.0895831121594 L 878 444.44174861881817 L 879 443.79344255092894 L 880 443.1446721118858 L 881 442.4954445102425 L 882 441.84576695963233 L 883 441.1956466786881 L 884 440.54509089096183 L 885 439.89410682484436 L 886 439.24270171348553 L 887 438.5908827947129 L 888 437.93865731095235 L 889 437.286032509147 L 890 436.6330156406767 L 891 435.9796139612779 L 892 435.3258347309625 L 893 434.67168521393734 L 894 434.0171726785237 L 895 433.36230439707634 L 896 432.7070876459028 L 897 432.0515297051824 L 898 431.3956378588857 L 899 430.7394193946929 L 900 430.08288160391356 L 901 429.42603178140536 L 902 428.7688772254929 L 903 428.1114252378867 L 904 427.45368312360193 L 905 426.7956581908777 L 906 426.1373577510953 L 907 425.47878911869736 L 908 424.81995961110636 L 909 424.16087654864333 L 910 423.5015472544466 L 911 422.8419790543905 L 912 422.1821792770038 L 913 421.52215525338823 L 914 420.8619143171374 L 915 420.201463804255 L 916 419.540811053073 L 917 418.87996340417095 L 918 418.21892820029353 L 919 417.5577127862697 L 920 416.8963245089305 L 921 416.2347707170279 L 922 415.57305876115254 L 923 414.9111959936529 L 924 414.2491897685527 L 925 413.5870474414701 L 926 412.92477636953515 L 927 412.2623839113084 L 928 411.5998774266993 L 929 410.9372642768843 L 930 410.27455182422483 L 931 409.6117474321857 L 932 408.9488584652536 L 933 408.2858922888543 L 934 407.62285626927206 L 935 406.95975777356693 L 936 406.2966041694931 L 937 405.63340282541714 L 938 404.9701611102361 L 939 404.3068863932955 L 940 403.64358604430754 L 941 402.9802674332694 L 942 402.3169379303809 L 943 401.6536049059631 L 944 400.9902757303762 L 945 400.3269577739374 L 946 399.6636584068395 L 947 399.00038499906856 L 948 398.3371449203223 L 949 397.6739455399281 L 950 397.01079422676133 L 951 396.34769834916284 L 952 395.6846652748579 L 953 395.02170237087375 L 954 394.35881700345817 L 955 393.69601653799737 L 956 393.0333083389339 L 957 392.3706997696856 L 958 391.708198192563 L 959 391.0458109686879 L 960 390.38354545791157 L 961 389.72140901873297 L 962 389.0594090082166 L 963 388.3975527819115 L 964 387.73584769376885 L 965 387.07430109606065 L 966 386.4129203392978 L 967 385.7517127721487 L 968 385.0906857413571 L 969 384.4298465916611 L 970 383.7692026657111 L 971 383.10876130398833 L 972 382.4485298447234 L 973 381.78851562381465 L 974 381.12872597474654 L 975 380.4691682285084 L 976 379.80984971351296 L 977 379.1507777555146 L 978 378.49195967752837 L 979 377.8334027997482 L 980 377.17511443946614 L 981 376.51710191099045 L 982 375.85937252556465 L 983 375.2019335912864 L 984 374.54479241302585 L 985 373.8879562923449 L 986 373.2314325274159 L 987 372.5752284129406 L 988 371.91935124006915 L 989 371.26380829631887 L 990 370.6086068654936 L 991 369.95375422760236 L 992 369.29925765877886 L 993 368.64512443120054 L 994 367.9913618130076 L 995 367.3379770682224 L 996 366.68497745666883 L 997 366.0323702338912 L 998 365.3801626510743 L 999 364.7283619549623 L 1000 364.0769753877784 L 1001 363.42601018714464 L 1002 362.7754735860007 L 1003 362.1253728125245 L 1004 361.47571509005127 L 1005 360.8265076369934 L 1006 360.1777576667605 L 1007 359.5294723876789 L 1008 358.8816590029115 L 1009 358.2343247103782 L 1010 357.58747670267564 L 1011 356.9411221669973 L 1012 356.29526828505345 L 1013 355.6499222329919 L 1014 355.0050911813175 L 1015 354.36078229481313 L 1016 353.71700273245983 L 1017 353.07375964735724 L 1018 352.43106018664406 L 1019 351.78891149141896 L 1020 351.1473206966606 L 1021 350.5062949311491 L 1022 349.86584131738636 L 1023 349.2259669715171 L 1024 348.5866790032496 L 1025 347.94798451577714 L 1026 347.30989060569834 L 1027 346.672404362939 L 1028 346.0355328706731 L 1029 345.39928320524393 L 1030 344.7636624360859 L 1031 344.12867762564514 L 1032 343.49433582930203 L 1033 342.8606440952923 L 1034 342.2276094646286 L 1035 341.5952389710226 L 1036 340.96353964080663 L 1037 340.3325184928555 L 1038 339.7021825385089 L 1039 339.0725387814932 L 1040 338.44359421784367 L 1041 337.81535583582667 L 1042 337.18783061586237 L 1043 336.5610255304466 L 1044 335.9349475440739 L 1045 335.30960361315994 L 1046 334.68500068596416 L 1047 334.06114570251265 L 1048 333.4380455945211 L 1049 332.8157072853175 L 1050 332.1941376897656 L 1051 331.57334371418796 L 1052 330.9533322562889 L 1053 330.33411020507833 L 1054 329.7156844407948 L 1055 329.09806183482937 L 1056 328.48124924964907 L 1057 327.8652535387207 L 1058 327.25008154643484 L 1059 326.6357401080295 L 1060 326.02223604951416 L 1061 325.4095761875944 L 1062 324.7977673295957 L 1063 324.18681627338793 L 1064 323.5767298073099 L 1065 322.967514710094 L 1066 322.3591777507903 L 1067 321.7517256886923 L 1068 321.14516527326106 L 1069 320.5395032440505 L 1070 319.93474633063244 L 1071 319.33090125252204 L 1072 318.72797471910275 L 1073 318.1259734295521 L 1074 317.5249040727671 L 1075 316.9247733272899 L 1076 316.325587861234 L 1077 315.7273543322092 L 1078 315.13007938724866 L 1079 314.5337696627346 L 1080 313.9384317843244 L 1081 313.34407236687724 L 1082 312.7506980143807 L 1083 312.1583153198768 L 1084 311.5669308653895 L 1085 310.9765512218511 L 1086 310.38718294902935 L 1087 309.79883259545454 L 1088 309.2115066983468 L 1089 308.6252117835433 L 1090 308.039954365426 L 1091 307.4557409468491 L 1092 306.87257801906674 L 1093 306.2904720616611 L 1094 305.70942954247016 L 1095 305.1294569175158 L 1096 304.5505606309324 L 1097 303.972747114895 L 1098 303.3960227895478 L 1099 302.820394062933 L 1100 302.2458673309194 L 1101 301.6724489771313 L 1102 301.100145372878 L 1103 300.52896287708245 L 1104 299.958907836211 L 1105 299.3899865842027 L 1106 298.8222054423989 L 1107 298.2555707194731 L 1108 297.6900887113609 L 1109 297.12576570118983 L 1110 296.5626079592098 L 1111 296.00062174272335 L 1112 295.4398132960158 L 1113 294.88018885028646 L 1114 294.321754623579 L 1115 293.7645168207123 L 1116 293.2084816332118 L 1117 292.6536552392407 L 1118 292.1000438035308 L 1119 291.54765347731467 L 1120 290.99649039825687 L 1121 290.4465606903859 L 1122 289.89787046402637 L 1123 289.3504258157306 L 1124 288.8042328282112 L 1125 288.2592975702736 L 1126 287.71562609674834 L 1127 287.1732244484241 L 1128 286.6320986519802 L 1129 286.0922547199199 L 1130 285.5536986505035 L 1131 285.0164364276819 L 1132 284.48047402102986 L 1133 283.94581738567956 L 1134 283.412472462255 L 1135 282.88044517680515 L 1136 282.34974144073897 L 1137 281.8203671507591 L 1138 281.2923281887968 L 1139 280.765630421946 L 1140 280.24027970239894 L 1141 279.7162818673802 L 1142 279.19364273908263 L 1143 278.6723681246023 L 1144 278.15246381587406 L 1145 277.633935589607 L 1146 277.1167892072206 L 1147 276.60103041478044 L 1148 276.08666494293436 L 1149 275.57369850684915 L 1150 275.06213680614644 L 1151 274.5519855248401 L 1152 274.04325033127213 L 1153 273.5359368780508 L 1154 273.03005080198693 L 1155 272.52559772403174 L 1156 272.02258324921416 L 1157 271.52101296657895 L 1158 271.02089244912395 L 1159 270.5222272537386 L 1160 270.0250229211422 L 1161 269.5292849758223 L 1162 269.0350189259731 L 1163 268.5422302634346 L 1164 268.0509244636312 L 1165 267.5611069855113 L 1166 267.0727832714862 L 1167 266.5859587473699 L 1168 266.10063882231884 L 1169 265.6168288887717 L 1170 265.1345343223892 L 1171 264.6537604819951 L 1172 264.17451270951597 L 1173 263.6967963299221 L 1174 263.2206166511683 L 1175 262.74597896413513 L 1176 262.2728885425697 L 1177 261.8013506430274 L 1178 261.3313705048133 L 1179 260.86295334992417 L 1180 260.3961043829903 L 1181 259.9308287912175 L 1182 259.4671317443299 L 1183 259.00501839451204 L 1184 258.54449387635196 L 1185 258.0855633067841 L 1186 257.62823178503226 L 1187 257.17250439255304 L 1188 256.7183861929794 L 1189 256.26588223206454 L 1190 255.81499753762552 L 1191 255.3657371194877 L 1192 254.91810596942895 L 1193 254.47210906112394 L 1194 254.02775135008937 L 1195 253.58503777362853 L 1196 253.14397325077664 L 1197 252.70456268224615 L 1198 252.2668109503721 L 1199 251.8307229190581 L 1200 251.3963034337223 L 1201 250.9635573212434 L 1202 250.53248938990694 L 1203 250.1031044293524 L 1204 249.67540721051915 L 1205 249.24940248559432 L 1206 248.82509498795926 L 1207 248.40248943213723 L 1208 247.98159051374142 L 1209 247.56240290942188 L 1210 247.1449312768146 L 1211 246.72918025448877 L 1212 246.3151544618961 L 1213 245.90285849931882 L 1214 245.49229694781886 L 1215 245.0834743691872 L 1216 244.67639530589253 L 1217 244.27106428103153 L 1218 243.86748579827804 L 1219 243.46566434183313 L 1220 243.06560437637575 L 1221 242.6673103470123 L 1222 242.27078667922808 L 1223 241.87603777883731 L 1224 241.48306803193515 L 1225 241.09188180484784 L 1226 240.70248344408495 L 1227 240.31487727629116 L 1228 239.92906760819739 L 1229 239.545058726574 L 1230 239.16285489818236 L 1231 238.78246036972754 L 1232 238.40387936781175 L 1233 238.02711609888647 L 1234 237.65217474920655 L 1235 237.27905948478306 L 1236 236.9077744513372 L 1237 236.5383237742546 L 1238 236.1707115585388 L 1239 235.8049418887664 L 1240 235.44101882904087 L 1241 235.07894642294818 L 1242 234.71872869351128 L 1243 234.36036964314562 L 1244 234.00387325361484 L 1245 233.64924348598615 L 1246 233.2964842805868 L 1247 232.94559955695982 L 1248 232.59659321382068 L 1249 232.24946912901416 L 1250 231.90423115947084 L 1251 231.56088314116477 L 1252 231.21942888907031 L 1253 230.87987219712 L 1254 230.54221683816263 L 1255 230.2064665639208 L 1256 229.8726251049498 L 1257 229.5406961705956 L 1258 229.21068344895417 L 1259 228.88259060683012 L 1260 228.55642128969595 L 1261 228.23217912165205 L 1262 227.90986770538564 L 1263 227.58949062213154 L 1264 227.27105143163172 L 1265 226.95455367209607 L 1266 226.64000086016327 L 1267 226.32739649086116 L 1268 226.01674403756857 L 1269 225.70804695197606 L 1270 225.40130866404826 L 1271 225.09653258198512 L 1272 224.79372209218428 L 1273 224.49288055920385 L 1274 224.1940113257243 L 1275 223.89711771251189 L 1276 223.60220301838146 L 1277 223.3092705201598 L 1278 223.01832347264966 L 1279 222.7293651085928 L 1280 222.44239863863487 L 1281 222.15742725128925 L 1282 221.87445411290162 L 1283 221.59348236761522 L 1284 221.31451513733532 L 1285 221.03755552169505 L 1286 220.7626065980205 L 1287 220.489671421297 L 1288 220.2187530241348 L 1289 219.94985441673538 L 1290 219.68297858685847 L 1291 219.41812849978817 L 1292 219.15530709830063 L 1293 218.8945173026309 L 1294 218.6357620104406 L 1295 218.379044096786 L 1296 218.1243664140856 L 1297 217.87173179208895 L 1298 217.62114303784466 L 1299 217.3726029356698 L 1300 217.12611424711838 L 1301 216.88167971095106 L 1302 216.63930204310475 L 1303 216.39898393666198 L 1304 216.1607280618216 L 1305 215.92453706586863 L 1306 215.69041357314498 L 1307 215.45836018502044 L 1308 215.22837947986355 L 1309 215.00047401301316 L 1310 214.7746463167499 L 1311 214.550898900268 L 1312 214.32923424964767 L 1313 214.10965482782706 L 1314 213.8921630745754 L 1315 213.67676140646535 L 1316 213.46345221684672 L 1317 213.2522378758193 L 1318 213.04312073020694 L 1319 212.8361031035314 L 1320 212.63118729598628 L 1321 212.42837558441195 L 1322 212.2276702222697 L 1323 212.02907343961695 L 1324 211.8325874430827 L 1325 211.6382144158426 L 1326 211.44595651759505 L 1327 211.25581588453684 L 1328 211.06779462933972 L 1329 210.88189484112687 L 1330 210.69811858544952 L 1331 210.51646790426423 L 1332 210.33694481591 L 1333 210.15955131508596 L 1334 209.98428937282927 L 1335 209.81116093649288 L 1336 209.64016792972444 L 1337 209.4713122524444 L 1338 209.30459578082528 L 1339 209.14002036727058 L 1340 208.97758784039428 L 1341 208.81730000500062 L 1342 208.65915864206386 L 1343 208.50316550870866 L 1344 208.3493223381904 L 1345 208.19763083987615 L 1346 208.04809269922535 L 1347 207.90070957777138 L 1348 207.755483113103 L 1349 207.61241491884604 L 1350 207.47150658464568 L 1351 207.33275967614864 L 1352 207.19617573498573 L 1353 207.06175627875498 L 1354 206.92950280100447 L 1355 206.799416771216 L 1356 206.67149963478846 L 1357 206.54575281302206 L 1358 206.42217770310248 L 1359 206.30077567808516 L 1360 206.18154808688033 L 1361 206.06449625423767 L 1362 205.94962148073196 L 1363 205.8369250427484 L 1364 205.72640819246843 L 1365 205.61807215785592 L 1366 205.51191814264348 L 1367 205.40794732631912 L 1368 205.30616086411302 L 1369 205.20655988698485 L 1370 205.10914550161104 L 1371 205.0139187903727 L 1372 204.9208808113435 L 1373 204.83003259827763 L 1374 204.74137516059886 L 1375 204.65490948338893 L 1376 204.57063652737665 L 1377 204.48855722892733 L 1378 204.40867250003237 L 1379 204.330983228299 L 1380 204.25549027694058 L 1381 204.18219448476688 L 1382 204.1110966661749 L 1383 204.04219761113956 L 1384 203.97549808520532 L 1385 203.91099882947728 L 1386 203.84870056061317 L 1387 203.78860397081536 L 1388 203.7307097278231 L 1389 203.6750184749052 L 1390 203.6215308308527 L 1391 203.57024738997228 L 1392 203.52116872207944 L 1393 203.47429537249215 L 1394 203.42962786202492 L 1395 203.387166686983 L 1396 203.3469123191568 L 1397 203.3088652058166 L 1398 203.27302576970771 L 1399 203.23939440904581 L 1400 203.20797149751226 L 1401 203.17875738425022 L 1402 203.15175239386068 L 1403 203.12695682639873 L 1404 203.1043709573705 L 1405 203.0839950377298 L 1406 203.06582929387557 L 1407 203.0498739276492 L 1408 203.03612911633238 L 1409 203.02459501264508 L 1410 203.01527174474393 L 1411 203.00815941622065 L 1412 203.00325810610107 L 1413 203.00056786884412 L 1414 203.00008873434132 L 1415 203.00182070791638 L 1416 203.00576377032513 L 1417 203.01191787775585 L 1418 203.02028296182962 L 1419 203.03085892960112 L 1420 203.04364566355974 L 1421 203.0586430216308 L 1422 203.0758508371771 L 1423 203.0952689190009 L 1424 203.11689705134592 L 1425 203.14073499389977 L 1426 203.16678248179676 L 1427 203.19503922562052 L 1428 203.22550491140757 L 1429 203.25817920065063 L 1430 203.29306173030233 L 1431 203.3301521127794 L 1432 203.3694499359668 L 1433 203.41095476322252 L 1434 203.45466613338223 L 1435 203.50058356076445 L 1436 203.54870653517608 L 1437 203.59903452191787 L 1438 203.65156696179042 L 1439 203.7063032711006 L 1440 203.7632428416677 L 1441 203.82238504083043 L 1442 203.8837292114538 L 1443 203.9472746719366 L 1444 204.01302071621888 L 1445 204.08096661378954 L 1446 204.151111609695 L 1447 204.22345492454707 L 1448 204.2979957545319 L 1449 204.37473327141885 L 1450 204.45366662256959 L 1451 204.53479493094773 L 1452 204.6181172951284 L 1453 204.70363278930847 L 1454 204.79134046331663 L 1455 204.88123934262407 L 1456 204.9733284283553 L 1457 205.0676066972992 L 1458 205.16407310192042 L 1459 205.26272657037097 L 1460 205.36356600650225 L 1461 205.46659028987713 L 1462 205.5717982757824 L 1463 205.67918879524154 L 1464 205.7887606550276 L 1465 205.90051263767668 L 1466 206.01444350150115 L 1467 206.13055198060374 L 1468 206.24883678489144 L 1469 206.36929660008985 L 1470 206.49193008775785 L 1471 206.61673588530232 L 1472 206.7437126059935 L 1473 206.87285883898028 L 1474 207.0041731493058 L 1475 207.13765407792354 L 1476 207.27330014171343 L 1477 207.4111098334984 L 1478 207.55108162206105 L 1479 207.6932139521607 L 1480 207.83750524455075 L 1481 207.98395389599608 L 1482 208.132558279291 L 1483 208.28331674327714 L 1484 208.43622761286204 L 1485 208.59128918903767 L 1486 208.74849974889915 L 1487 208.90785754566414 L 1488 209.06936080869204 L 1489 209.23300774350386 L 1490 209.39879653180205 L 1491 209.56672533149057 L 1492 209.73679227669567 L 1493 209.9089954777863 L 1494 210.08333302139545 L 1495 210.25980297044094 L 1496 210.43840336414746 L 1497 210.6191322180681 L 1498 210.8019875241062 L 1499 210.98696725053816 L 1500 211.17406934203544 L 1501 211.3632917196879 L 1502 211.55463228102676 L 1503 211.7480889000475 L 1504 211.94365942723434 L 1505 212.14134168958327 L 1506 212.34113349062682 L 1507 212.5430326104582 L 1508 212.7470368057558 L 1509 212.9531438098086 L 1510 213.16135133254076 L 1511 213.37165706053756 L 1512 213.5840586570708 L 1513 213.798553762125 L 1514 214.01513999242346 L 1515 214.2338149414546 L 1516 214.4545761794991 L 1517 214.67742125365658 L 1518 214.9023476878729 L 1519 215.12935298296787 L 1520 215.3584346166627 L 1521 215.5895900436083 L 1522 215.82281669541334 L 1523 216.0581119806731 L 1524 216.29547328499777 L 1525 216.53489797104208 L 1526 216.7763833785343 L 1527 217.01992682430551 L 1528 217.26552560232008 L 1529 217.51317698370514 L 1530 217.76287821678125 L 1531 218.0146265270929 L 1532 218.26841911743912 L 1533 218.52425316790496 L 1534 218.78212583589237 L 1535 219.04203425615222 L 1536 219.30397554081588 L 1537 219.5679467794272 L 1538 219.8339450389753 L 1539 220.10196736392652" stroke-linecap="round" stroke-linejoin="round" stroke-miterlimit="10"/></g></svg>