<svg version="1.1" xmlns="http://www.w3.org/2000/svg" xmlns:xlink="http://www.w3.org/1999/xlink" width="1560" height="804"><defs/><g><path fill="none" stroke="#02063B" paint-order="fill stroke markers" d=" M 20 479.45045861775657 L 21 483.2661395692291 L 22 487.0735289740632 L 23 490.8722383660786 L 24 494.6618801647128 L 25 498.4420677145655 L 26 502.2124153248493 L 27 505.97253830874104 L 28 509.7220530226316 L 29 513.4605769052687 L 30 517.1877285167894 L 31 520.9031275776385 L 32 524.6063950073681 L 33 528.2971529633147 L 34 531.9750248791511 L 35 535.6396355033064 L 36 539.2906109372534 L 37 542.927578673657 L 38 546.5501676343808 L 39 550.1580082083487 L 40 553.7507322892553 L 41 557.327973313124 L 42 560.8893662957075 L 43 564.4345478697268 L 44 567.9631563219452 L 45 571.4748316300744 L 46 574.9692154995066 L 47 578.4459513998715 L 48 581.9046846014131 L 49 585.3450622111824 L 50 588.7667332090427 L 51 592.1693484834848 L 52 595.5525608672453 L 53 598.9160251727297 L 54 602.2593982272301 L 55 605.5823389079401 L 56 608.8845081767586 L 57 612.1655691148823 L 58 615.4251869571808 L 59 618.6630291263534 L 60 621.8787652668607 L 61 625.0720672786315 L 62 628.2426093505383 L 63 631.3900679936397 L 64 634.5141220741859 L 65 637.6144528463838 L 66 640.6907439849185 L 67 643.7426816172276 L 68 646.7699543555261 L 69 649.7722533285764 L 70 652.7492722132027 L 71 655.7007072655449 L 72 658.6262573520496 L 73 661.525623980194 L 74 664.3985113289425 L 75 667.2446262789272 L 76 670.0636784423557 L 77 672.8553801926398 L 78 675.6194466937408 L 79 678.3555959292319 L 80 681.0635487310717 L 81 683.7430288080885 L 82 686.393762774169 L 83 689.0154801761523 L 84 691.6079135214247 L 85 694.1707983052106 L 86 696.7038730375607 L 87 699.2068792700317 L 88 701.679561622055 L 89 704.1216678069937 L 90 706.5329486578834 L 91 708.9131581528536 L 92 711.2620534402306 L 93 713.5793948633144 L 94 715.8649459848311 L 95 718.118473611057 L 96 720.3397478156103 L 97 722.5285419629112 L 98 724.6846327313051 L 99 726.8078001358481 L 100 728.8978275507516 L 101 730.954501731485 L 102 732.977612836533 L 103 734.9669544488049 L 104 736.9223235966961 L 105 738.8435207747966 L 106 740.7303499642469 L 107 742.5826186527373 L 108 744.4001378541501 L 109 746.1827221278418 L 110 747.9301895975632 L 111 749.6423619700164 L 112 751.3190645530462 L 113 752.9601262734636 L 114 754.5653796944998 L 115 756.1346610328908 L 116 757.6678101755874 L 117 759.1646706960915 L 118 760.6250898704166 L 119 762.0489186926694 L 120 763.4360118902539 L 121 764.7862279386925 L 122 766.0994290760661 L 123 767.3754813170702 L 124 768.6142544666845 L 125 769.8156221334577 L 126 770.979461742402 L 127 772.1056545475006 L 128 773.1940856438223 L 129 774.2446439792457 L 130 775.2572223657896 L 131 776.2317174905496 L 132 777.1680299262387 L 133 778.0660641413322 L 134 778.9257285098142 L 135 779.746935320527 L 136 780.5296007861194 L 137 781.2736450515958 L 138 781.9789922024639 L 139 782.6455702724802 L 140 783.2733112509924 L 141 783.8621510898787 L 142 784.4120297100827 L 143 784.9228910077431 L 144 785.394682859918 L 145 785.8273571299028 L 146 786.2208696721419 L 147 786.5751803367325 L 148 786.8902529735215 L 149 787.1660554357934 L 150 787.4025595835503 L 151 787.5997412863837 L 152 787.7575804259357 L 153 787.8760608979514 L 154 787.9551706139235 L 155 787.9949015023241 L 156 787.995249509429 L 157 787.9562145997313 L 158 787.8778007559446 L 159 787.7600159785973 L 160 787.6028722852157 L 161 787.4063857090982 L 162 787.1705762976792 L 163 786.895468110484 L 164 786.5810892166736 L 165 786.2274716921813 L 166 785.8346516164395 L 167 785.4026690686987 L 168 784.9315681239389 L 169 784.4213968483713 L 170 783.8722072945353 L 171 783.2840554959871 L 172 782.6570014615827 L 173 781.9911091693552 L 174 781.2864465599873 L 175 780.5430855298794 L 176 779.7611019238132 L 177 778.9405755272145 L 178 778.0815900580122 L 179 777.1842331580965 L 180 776.2485963843769 L 181 775.2747751994407 L 182 774.262868961813 L 183 773.2129809158193 L 184 772.1252181810517 L 185 770.9996917414384 L 186 769.8365164339219 L 187 768.6358109367409 L 188 767.397697757322 L 189 766.1223032197803 L 190 764.8097574520307 L 191 763.4601943725106 L 192 762.0737516765173 L 193 760.6505708221578 L 194 759.1907970159164 L 195 757.6945791978395 L 196 756.1620700263393 L 197 754.5934258626176 L 198 752.9888067547131 L 199 751.3483764211715 L 200 749.6723022343408 L 201 747.9607552032954 L 202 746.2139099563874 L 203 744.4319447234293 L 204 742.6150413175098 L 205 740.7633851164434 L 206 738.8771650438557 L 207 736.9565735499085 L 208 735.0018065916638 L 209 733.0130636130904 L 210 730.9905475247147 L 211 728.9344646829176 L 212 726.845024868881 L 213 724.7224412671826 L 214 722.5669304440457 L 215 720.378712325243 L 216 718.1580101736571 L 217 715.9050505665014 L 218 713.6200633722027 L 219 711.303281726948 L 220 708.954942010897 L 221 706.5752838240649 L 222 704.1645499618762 L 223 701.7229863903917 L 224 699.2508422212138 L 225 696.7483696860686 L 226 694.2158241110719 L 227 691.6534638906771 L 228 689.0615504613129 L 229 686.4403482747076 L 230 683.7901247709083 L 231 681.1111503509933 L 232 678.4036983494839 L 233 675.6680450064557 L 234 672.9044694393541 L 235 670.1132536145165 L 236 667.2946823184024 L 237 664.4490431285376 L 238 661.5766263841729 L 239 658.6777251566602 L 240 655.7526352195514 L 241 652.8016550184198 L 242 649.8250856404106 L 243 646.8232307835212 L 244 643.7963967256144 L 245 640.744892293169 L 246 637.6690288297714 L 247 634.5691201643483 L 248 631.445482579147 L 249 628.298434777466 L 250 625.1282978511373 L 251 621.935395247765 L 252 618.7200527377256 L 253 615.4825983809283 L 254 612.2233624933438 L 255 608.9426776133026 L 256 605.6408784675658 L 257 602.3183019371736 L 258 598.9752870230725 L 259 595.6121748115281 L 260 592.2293084393244 L 261 588.8270330587529 L 262 585.4056958023971 L 263 581.9656457477151 L 264 578.5072338814234 L 265 575.030813063685 L 266 571.5367379921083 L 267 568.0253651655572 L 268 564.4970528477771 L 269 560.9521610308424 L 270 557.3910513984257 L 271 553.8140872888957 L 272 550.2216336582467 L 273 546.6140570428611 L 274 542.9917255221127 L 275 539.3550086808114 L 276 535.7042775714945 L 277 532.0399046765691 L 278 528.362263870307 L 279 524.6717303806986 L 280 520.9686807511697 L 281 517.2534928021611 L 282 513.5265455925812 L 283 509.7882193811304 L 284 506.03889558750313 L 285 502.27895675347213 L 286 498.508786503858 L 287 494.7287695073877 L 288 490.93929143744714 L 289 487.14073893273167 L 290 483.3334995577963 L 291 479.51796176351417 L 292 475.6945148474417 L 293 471.86354891409957 L 294 468.0254548351704 L 295 464.1806242096182 L 296 460.32944932373334 L 297 456.4723231111087 L 298 452.60963911254805 L 299 448.7417914359131 L 300 444.8691747159141 L 301 440.99218407384376 L 302 437.11121507726426 L 303 433.2266636996479 L 304 429.3389262799751 L 305 425.4483994822968 L 306 421.5554802552633 L 307 417.6605657916227 L 308 413.76405348769674 L 309 409.8663409028338 L 310 405.9678257188462 L 311 402.0689056994356 L 312 398.16997864960837 L 313 394.27144237508816 L 314 390.3736946417285 L 315 386.47713313492784 L 316 382.58215541905474 L 317 378.68915889688446 L 318 374.79854076905184 L 319 370.91069799352493 L 320 367.0260272451046 L 321 363.1449248749506 L 322 359.2677868701428 L 323 355.39500881327916 L 324 351.5269858421135 L 325 347.6641126092411 L 326 343.80678324183134 L 327 339.95539130141566 L 328 336.1103297437329 L 329 332.2719908786355 L 330 328.4407663300626 L 331 324.61704699608356 L 332 320.8012230090135 L 333 316.993683695609 L 334 313.1948175373458 L 335 309.40501213078096 L 336 305.6246541480074 L 337 301.8541292972022 L 338 298.093822283272 L 339 294.3441167686023 L 340 290.60539533391307 L 341 286.87803943922296 L 342 283.16242938493053 L 343 279.45894427301107 L 344 275.7679619683378 L 345 272.08985906012856 L 346 268.42501082352214 L 347 264.77379118128897 L 348 261.1365726656811 L 349 257.5137263804213 L 350 253.90562196284063 L 351 250.31262754616455 L 352 246.73510972195157 L 353 243.17343350269076 L 354 239.6279622845599 L 355 236.09905781034757 L 356 232.58708013254554 L 357 229.09238757661203 L 358 225.61533670441221 L 359 222.15628227783895 L 360 218.71557722261556 L 361 215.2935725922875 L 362 211.890617532405 L 363 208.50705924489893 L 364 205.14324295265652 L 365 201.79951186429878 L 366 198.47620713916206 L 367 195.1736678524906 L 368 191.89223096084078 L 369 188.63223126770094 L 370 185.39400138933212 L 371 182.17787172083155 L 372 178.98417040242168 L 373 175.81322328597136 L 374 172.66535390174835 L 375 169.54088342541004 L 376 166.44013064523452 L 377 163.36341192959378 L 378 160.31104119467548 L 379 157.28332987245437 L 380 154.28058687891632 L 381 151.30311858254024 L 382 148.3512287730397 L 383 145.42521863036671 L 384 142.52538669398297 L 385 139.6520288324 L 386 136.8054382129916 L 387 133.9859052720821 L 388 131.19371768531374 L 389 128.42916033829465 L 390 125.69251529753262 L 391 122.98406178165544 L 392 120.30407613292272 L 393 117.6528317890311 L 394 115.03059925521472 L 395 112.43764607664627 L 396 109.87423681113972 L 397 107.34063300215661 L 398 104.83709315212235 L 399 102.36387269604961 L 400 99.92122397547797 L 401 97.50939621272698 L 402 95.12863548546756 L 403 92.7791847016158 L 404 90.46128357454899 L 405 88.17516859864674 L 406 85.92107302516308 L 407 83.69922683842708 L 408 81.50985673237733 L 409 79.35318608743347 L 410 77.22943494770414 L 411 75.13881999853578 L 412 73.08155454440492 L 413 71.05784848715439 L 414 69.06790830457766 L 415 67.11193702935094 L 416 65.19013422831898 L 417 63.302695982133 L 418 61.44981486524415 L 419 59.63167992625603 L 420 57.84847666863584 L 421 56.100387031786966 L 422 54.38758937248684 L 423 52.71025844668873 L 424 51.06856539169087 L 425 49.46267770867672 L 426 47.89275924562406 L 427 46.35897018058739 L 428 44.86146700535579 L 429 43.4004025094859 L 430 41.97592576471226 L 431 40.58818210973851 L 432 39.2373131354081 L 433 37.92345667025762 L 434 36.64674676645467 L 435 35.4073136861204 L 436 34.20528388803865 L 437 33.04078001475392 L 438 31.913920880058015 L 439 30.824821456867028 L 440 29.773592865491594 L 441 28.7603423622989 L 442 27.785173328768963 L 443 26.848185260947446 L 444 25.94947375929354 L 445 25.08913051892614 L 446 24.26724332026828 L 447 23.483896020090583 L 448 22.739168542956065 L 449 22.03313687306462 L 450 21.36587304650112 L 451 20.737445143885168 L 452 20.147917283425045 L 453 19.59734961437573 L 454 19.085798310901907 L 455 18.6133155663465 L 456 18.1799495879053 L 457 17.785744591708976 L 458 17.430740798310694 L 459 17.114974428583423 L 460 16.83847770002393 L 461 16.601278823465407 L 462 16.403402000199662 L 463 16.244867419507443 L 464 16.1256912565986 L 465 16.045885670962036 L 466 16.005458805124704 L 467 16.004414783821005 L 468 16.042753713572097 L 469 16.120471682674463 L 470 16.23756076159981 L 471 16.394009003803546 L 472 16.589800446943855 L 473 16.82491511451036 L 474 17.09932901786226 L 475 17.41301415867582 L 476 17.765938531801282 L 477 18.15806612852805 L 478 18.58935694025871 L 479 19.059766962591254 L 480 19.569248199808612 L 481 20.117748669775835 L 482 20.70521240924353 L 483 21.331579479558116 L 484 21.99678597277699 L 485 22.700764018189318 L 486 23.443441789240694 L 487 24.224743510861572 L 488 25.04458946719859 L 489 25.902896009748076 L 490 26.799575565890336 L 491 27.734536647824825 L 492 28.707683861904968 L 493 29.71891791837038 L 494 30.768135641477897 L 495 31.855229980028582 L 496 32.98009001828973 L 497 34.14260098731171 L 498 35.342644276638225 L 499 36.58009744640725 L 500 37.85483423984414 L 501 39.16672459614347 L 502 40.51563466373881 L 503 41.90142681395963 L 504 43.32395965507402 L 505 44.783088046713885 L 506 46.27866311468398 L 507 47.810532266152165 L 508 49.37853920521724 L 509 50.982523948856 L 510 52.62232284324722 L 511 54.2977685804679 L 512 56.00869021556423 L 513 57.754913183992926 L 514 59.536259319432304 L 515 61.35254687195987 L 516 63.20359052659637 L 517 65.0892014222141 L 518 67.0091871708052 L 519 68.9633518771115 L 520 70.95149615861203 L 521 72.97341716586504 L 522 75.02890860320502 L 523 77.1177607497915 L 524 79.23976048100582 L 525 81.39469129019653 L 526 83.5823333107702 L 527 85.80246333862272 L 528 88.05485485491414 L 529 90.33927804917982 L 530 92.65549984277772 L 531 95.00328391266902 L 532 97.38239071553124 L 533 99.7925775121974 L 534 102.23359839242295 L 535 104.70520429997669 L 536 107.20714305805086 L 537 109.73915939499057 L 538 112.30099497034047 L 539 114.89238840120129 L 540 117.51307528889947 L 541 120.16278824596418 L 542 122.84125692340768 L 543 125.5482080383091 L 544 128.28336540169857 L 545 131.04644994673498 L 546 133.83717975717997 L 547 136.65527009616125 L 548 139.50043343522532 L 549 142.37237948367226 L 550 145.27081521817456 L 551 148.1954449126751 L 552 151.1459701685585 L 553 154.122089945097 L 554 157.12350059016677 L 555 160.14989587122736 L 556 163.20096700656757 L 557 166.27640269681095 L 558 169.37588915667604 L 559 172.49911014699236 L 560 175.64574700696727 L 561 178.81547868669676 L 562 182.00798177992317 L 563 185.22293055703275 L 564 188.45999699828837 L 565 191.71885082729776 L 566 194.9991595447122 L 567 198.30058846215013 L 568 201.62280073634548 L 569 204.96545740351698 L 570 208.32821741395023 L 571 211.7107376667963 L 572 215.11267304507865 L 573 218.53367645090356 L 574 221.97339884087523 L 575 225.4314892617096 L 576 228.9075948860399 L 577 232.40136104841653 L 578 235.91243128149424 L 579 239.44044735240055 L 580 242.98504929928728 L 581 246.54587546805672 L 582 250.12256254926217 L 583 253.7147456151745 L 584 257.3220581570164 L 585 260.9441321223581 L 586 264.5805979526676 L 587 268.23108462101754 L 588 271.8952196699421 L 589 275.5726292494364 L 590 279.2629381551012 L 591 282.9657698664262 L 592 286.680746585204 L 593 290.40748927407765 L 594 294.1456176952146 L 595 297.8947504491005 L 596 301.654505013454 L 597 305.42449778225614 L 598 309.2043441048879 L 599 312.99365832537666 L 600 316.7920538217455 L 601 320.5991430454583 L 602 324.41453756096166 L 603 328.23784808531843 L 604 332.06868452792344 L 605 335.9066560303058 L 606 339.7513710060086 L 607 343.6024371805406 L 608 347.4594616314006 L 609 351.3220508281682 L 610 355.1898106726536 L 611 359.0623465391086 L 612 362.9392633144892 L 613 366.82016543877035 L 614 370.7046569453028 L 615 374.59234150121415 L 616 378.4828224478477 L 617 382.37570284123126 L 618 386.27058549257833 L 619 390.16707300881376 L 620 394.06476783311797 L 621 397.9632722854901 L 622 401.8621886033245 L 623 405.761118981992 L 624 409.65966561542876 L 625 413.55743073672534 L 626 417.45401665870867 L 627 421.34902581451865 L 628 425.2420607981732 L 629 429.13272440511287 L 630 433.02061967272874 L 631 436.9053499208654 L 632 440.78651879229164 L 633 444.6637302931421 L 634 448.53658883332116 L 635 452.4046992668625 L 636 456.26766693224715 L 637 460.1250976926713 L 638 463.976597976258 L 639 467.82177481621414 L 640 471.6602358909256 L 641 475.4915895639838 L 642 479.31544492414474 L 643 483.13141182521525 L 644 486.93910092585674 L 645 490.7381237293111 L 646 494.5280926230383 L 647 498.3086209182654 L 648 502.07932288943846 L 649 505.83981381357876 L 650 509.5897100095371 L 651 513.3286288771384 L 652 517.0561889362193 L 653 520.7720098655515 L 654 524.4757125416436 L 655 528.166919077424 L 656 531.8452528607977 L 657 535.5103385930693 L 658 539.1618023272362 L 659 542.7992715061429 L 660 546.4223750004909 L 661 550.030743146706 L 662 553.6240077846553 L 663 557.2018022952095 L 664 560.7637616376487 L 665 564.3095223869092 L 666 567.8387227706611 L 667 571.3510027062212 L 668 574.8460038372922 L 669 578.323369570525 L 670 581.7827451119016 L 671 585.2237775029357 L 672 588.6461156566837 L 673 592.0494103935662 L 674 595.4333144769953 L 675 598.7974826488023 L 676 602.141571664464 L 677 605.4652403281252 L 678 608.7681495274089 L 679 612.0499622680169 L 680 615.3103437081127 L 681 618.5489611924863 L 682 621.7654842864932 L 683 624.9595848097695 L 684 628.1309368697162 L 685 631.2792168947491 L 686 634.4041036673128 L 687 637.5052783566557 L 688 640.5824245513581 L 689 643.6352282916166 L 690 646.6633781012777 L 691 649.6665650196164 L 692 652.6444826328602 L 693 655.5968271054526 L 694 658.5232972110521 L 695 661.423594363267 L 696 664.2974226461205 L 697 667.1444888442418 L 698 669.9645024727829 L 699 672.757175807058 L 700 675.5222239118982 L 701 678.2593646707237 L 702 680.968318814329 L 703 683.6488099493756 L 704 686.3005645865921 L 705 688.92331216868 L 706 691.5167850979159 L 707 694.0807187634559 L 708 696.6148515683346 L 709 699.1189249561533 L 710 701.5926834374623 L 711 704.0358746158277 L 712 706.4482492135836 L 713 708.8295610972654 L 714 711.1795673027226 L 715 713.4980280599092 L 716 715.7847068173462 L 717 718.039370266257 L 718 720.2617883643734 L 719 722.4517343594041 L 720 724.6089848121719 L 721 726.7333196194111 L 722 728.8245220362236 L 723 730.8823786981936 L 724 732.906679643158 L 725 734.8972183326271 L 726 736.8537916728591 L 727 738.776200035581 L 728 740.6642472783567 L 729 742.5177407645988 L 730 744.3364913832245 L 731 746.1203135679489 L 732 747.8690253162192 L 733 749.5824482077852 L 734 751.2604074229012 L 735 752.9027317601641 L 736 754.5092536539819 L 737 756.0798091916685 L 738 757.6142381301685 L 739 759.1123839124072 L 740 760.5740936832631 L 741 761.999218305164 L 742 763.3876123733044 L 743 764.7391342304791 L 744 766.0536459815382 L 745 767.3310135074555 L 746 768.5711064790133 L 747 769.7737983700991 L 748 770.9389664706152 L 749 772.0664918989996 L 750 773.156259614354 L 751 774.2081584281823 L 752 775.2220810157351 L 753 776.1979239269596 L 754 777.1355875970548 L 755 778.0349763566303 L 756 778.8959984414668 L 757 779.7185660018789 L 758 780.5025951116793 L 759 781.24800577674 L 760 781.9547219431558 L 761 782.6226715050034 L 762 783.2517863116972 L 763 783.8420021749448 L 764 784.3932588752948 L 765 784.9055001682806 L 766 785.3786737901601 L 767 785.8127314632477 L 768 786.2076289008394 L 769 786.5633258117325 L 770 786.8797859043357 L 771 787.1569768903719 L 772 787.3948704881732 L 773 787.5934424255656 L 774 787.7526724423464 L 775 787.8725442923503 L 776 787.9530457451083 L 777 787.994168587094 L 778 787.9959086225633 L 779 787.9582656739807 L 780 787.8812435820391 L 781 787.764850205267 L 782 787.6090974192266 L 783 787.4140011153027 L 784 787.179581199081 L 785 786.9058615883171 L 786 786.5928702104964 L 787 786.2406389999842 L 788 785.8492038947684 L 789 785.4186048327914 L 790 784.9488857478766 L 791 784.4400945652449 L 792 783.8922831966254 L 793 783.3055075349587 L 794 782.6798274486941 L 795 782.0153067756817 L 796 781.3120133166583 L 797 780.5700188283301 L 798 779.789399016052 L 799 778.9702335261022 L 800 778.1126059375567 L 801 777.2166037537621 L 802 776.2823183934067 L 803 775.3098451811937 L 804 774.2992833381152 L 805 773.2507359713286 L 806 772.1643100636371 L 807 771.0401164625735 L 808 769.8782698690912 L 809 768.6788888258604 L 810 767.4420957051748 L 811 766.1680166964641 L 812 764.8567817934206 L 813 763.5085247807351 L 814 762.1233832204473 L 815 760.7014984379094 L 816 759.2430155073687 L 817 757.7480832371639 L 818 756.2168541545434 L 819 754.6494844901022 L 820 753.0461341618425 L 821 751.4069667588566 L 822 749.7321495246367 L 823 748.0218533400107 L 824 746.2762527057073 L 825 744.4955257245521 L 826 742.6798540832954 L 827 740.8294230340753 L 828 738.9444213755156 L 829 737.025041433464 L 830 735.0714790413684 L 831 733.0839335202962 L 832 731.0626076585978 L 833 729.0077076912164 L 834 726.9194432786448 L 835 724.7980274855354 L 836 722.6436767589607 L 837 720.4566109063292 L 838 718.237053072958 L 839 715.9852297193072 L 840 713.7013705978711 L 841 711.3857087297404 L 842 709.0384803808242 L 843 706.6599250377459 L 844 704.2502853834069 L 845 701.8098072722273 L 846 699.3387397050594 L 847 696.8373348037846 L 848 694.3058477855884 L 849 691.7445369369203 L 850 689.1536635871419 L 851 686.5334920818634 L 852 683.8842897559706 L 853 681.2063269063524 L 854 678.4998767643199 L 855 675.7652154677294 L 856 673.0026220328082 L 857 670.2123783256877 L 858 667.3947690336418 L 859 664.5500816360441 L 860 661.6786063750342 L 861 658.780636225905 L 862 655.8564668672109 L 863 652.906396650599 L 864 649.9307265703699 L 865 646.9297602327647 L 866 643.9038038249914 L 867 640.8531660839831 L 868 637.7781582648978 L 869 634.679094109361 L 870 631.556289813456 L 871 628.4100639954598 L 872 625.2407376633385 L 873 622.0486341819915 L 874 618.8340792402612 L 875 615.5974008177018 L 876 612.3389291511162 L 877 609.0589967008607 L 878 605.757938116927 L 879 602.4360902047957 L 880 599.0937918910732 L 881 595.7313841889107 L 882 592.3492101632118 L 883 588.9476148956269 L 884 585.5269454493487 L 885 582.087550833699 L 886 578.6297819685198 L 887 575.1539916483692 L 888 571.6605345065273 L 889 568.1497669788089 L 890 564.6220472672022 L 891 561.077735303318 L 892 557.5171927116669 L 893 553.9407827727628 L 894 550.3488703860578 L 895 546.7418220327124 L 896 543.1200057382008 L 897 539.4837910347651 L 898 535.8335489237099 L 899 532.16965183755 L 900 528.4924736020103 L 901 524.8023893978865 L 902 521.0997757227622 L 903 517.385010352599 L 904 513.6584723031897 L 905 509.9205417914881 L 906 506.1716001968158 L 907 502.4120300219505 L 908 498.6422148540973 L 909 494.86253932575505 L 910 491.07338907547 L 911 487.27515070848983 L 912 483.46821175731867 L 913 479.65296064217785 L 914 475.8297866313728 L 915 471.9990798015807 L 916 468.1612309980477 L 917 464.31663179471246 L 918 460.46567445425376 L 919 456.60875188806875 L 920 452.74625761618194 L 921 448.87858572709837 L 922 445.0061308375922 L 923 441.12928805244496 L 924 437.24845292413323 L 925 433.36402141247044 L 926 429.476389844208 L 927 425.58595487259555 L 928 421.6931134369149 L 929 417.79826272197744 L 930 413.90180011760043 L 931 410.00412317806143 L 932 406.1056295815368 L 933 402.2067170895239 L 934 398.307783506262 L 935 394.40922663814143 L 936 390.5114442531166 L 937 386.61483404012176 L 938 382.71979356849556 L 939 378.82672024741464 L 940 374.93601128535033 L 941 371.0480636495388 L 942 367.1632740254792 L 943 363.28203877646047 L 944 359.4047539031208 L 945 355.5318150030414 L 946 351.6636172303879 L 947 347.8005552555901 L 948 343.9430232250749 L 949 340.09141472105136 L 950 336.24612272135477 L 951 332.40753955934804 L 952 328.5760568838969 L 953 324.7520656194067 L 954 320.9359559259378 L 955 317.12811715939745 L 956 313.3289378318147 L 957 309.53880557169805 L 958 305.75810708449 L 959 301.9872281131087 L 960 298.22655339859176 L 961 294.47646664084124 L 962 290.73735045947467 L 963 287.00958635478764 L 964 283.2935546688265 L 965 279.5896345465863 L 966 275.89820389732427 L 967 272.2196393560023 L 968 268.5543162448596 L 969 264.9026085351186 L 970 261.264888808827 L 971 257.6415282208468 L 972 254.03289646098318 L 973 250.4393617162658 L 974 246.8612906333828 L 975 243.29904828127266 L 976 239.75299811387399 L 977 236.22350193304607 L 978 232.71091985165208 L 979 229.2156102568173 L 980 225.73792977336333 L 981 222.2782332274222 L 982 218.83687361023135 L 983 215.41420204212162 L 984 212.01056773669038 L 985 208.6263179651717 L 986 205.2617980210047 L 987 201.917351184604 L 988 198.59331868833246 L 989 195.29003968168908 L 990 192.00785119670326 L 991 188.74708811354827 L 992 185.50808312637355 L 993 182.29116670936006 L 994 179.09666708300267 L 995 175.92491018061986 L 996 172.77621961510215 L 997 169.65091664589184 L 998 166.54932014620553 L 999 163.47174657049976 L 1000 160.41850992218377 L 1001 157.3899217215797 L 1002 154.3862909741417 L 1003 151.40792413892575 L 1004 148.45512509732282 L 1005 145.52819512205355 L 1006 142.62743284643022 L 1007 139.75313423388536 L 1008 136.9055925477777 L 1009 134.08509832146865 L 1010 131.2919393286797 L 1011 128.52640055413121 L 1012 125.78876416446587 L 1013 123.07930947945755 L 1014 120.3983129435153 L 1015 117.74604809747575 L 1016 115.12278555069463 L 1017 112.5287929534365 L 1018 109.96433496956678 L 1019 107.42967324954685 L 1020 104.92506640374029 L 1021 102.45076997602524 L 1022 100.00703641772202 L 1023 97.59411506183545 L 1024 95.21225209761565 L 1025 92.86169054543967 L 1026 90.54267023201493 L 1027 88.25542776591192 L 1028 86.00019651342177 L 1029 83.77720657474617 L 1030 81.5866847605206 L 1031 79.4288545686731 L 1032 77.30393616161945 L 1033 75.21214634380249 L 1034 73.15369853956997 L 1035 71.12880277139936 L 1036 69.13766563846951 L 1037 67.18049029558165 L 1038 65.25747643243017 L 1039 63.36882025323064 L 1040 61.514714456699494 L 1041 59.69534821639388 L 1042 57.910907161409796 L 1043 56.16157335744316 L 1044 54.44752528821249 L 1045 52.768937837249894 L 1046 51.125982270056625 L 1047 49.51882621662952 L 1048 47.9476336543575 L 1049 46.412564891291254 L 1050 44.91377654978629 L 1051 43.45142155052429 L 1052 42.02564909690949 L 1053 40.636604659846 L 1054 39.28442996289539 L 1055 37.96926296781692 L 1056 36.69123786049033 L 1057 35.4504850372266 L 1058 34.247131091462506 L 1059 33.08129880084465 L 1060 31.953107114702448 L 1061 30.862671141911903 L 1062 29.810102139151297 L 1063 28.795507499548762 L 1064 27.818990741726395 L 1065 26.880651499237445 L 1066 25.980585510400772 L 1067 25.118884608533108 L 1068 24.295636712579096 L 1069 23.510925818140493 L 1070 22.764831988907133 L 1071 22.0574313484874 L 1072 21.38879607264147 L 1073 20.75899438191732 L 1074 20.168090534690407 L 1075 19.61614482060662 L 1076 19.10321355443216 L 1077 18.62934907030683 L 1078 18.194599716404866 L 1079 17.79900985000171 L 1080 17.44261983294865 L 1081 17.125466027554126 L 1082 16.84758079287434 L 1083 16.608992481411235 L 1084 16.4097254362199 L 1085 16.249799988424797 L 1086 16.129232455145484 L 1087 16.048035137831448 L 1088 16.006216321007628 L 1089 16.003780271428468 L 1090 16.040727237642955 L 1091 16.11705344996932 L 1092 16.232751120879243 L 1093 16.387808445792984 L 1094 16.582209604283378 L 1095 16.81593476169013 L 1096 17.088960071143504 L 1097 17.401257675997442 L 1098 17.75279571267174 L 1099 18.143538313903036 L 1100 18.573445612404498 L 1101 19.04247374493326 L 1102 19.550574856765877 L 1103 20.09769710658088 L 1104 20.68378467174807 L 1105 21.308777754024163 L 1106 21.972612585654247 L 1107 22.675221435877233 L 1108 23.416532617837163 L 1109 24.196470495896904 L 1110 25.014955493355444 L 1111 25.87190410056695 L 1112 26.767228883461428 L 1113 27.70083849246538 L 1114 28.67263767182203 L 1115 29.682527269310526 L 1116 30.730404246362355 L 1117 31.816161688573857 L 1118 32.93968881661573 L 1119 34.1008709975344 L 1120 35.29958975644911 L 1121 36.535722788639134 L 1122 37.809143972022866 L 1123 39.11972338002596 L 1124 40.46732729483705 L 1125 41.851818221052554 L 1126 43.273054899703254 L 1127 44.73089232266807 L 1128 46.22518174746892 L 1129 47.755770712446804 L 1130 49.3225030523173 L 1131 50.925218914104676 L 1132 52.56375477345057 L 1133 54.23794345129903 L 1134 55.94761413095341 L 1135 57.692592375504944 L 1136 59.47270014563003 L 1137 61.28775581775665 L 1138 63.137574202593726 L 1139 65.0219665640268 L 1140 66.94074063837473 L 1141 68.89370065400612 L 1142 70.88064735131331 L 1143 72.90137800304439 L 1144 74.95568643498501 L 1145 77.04336304699603 L 1146 79.16419483439802 L 1147 81.31796540970458 L 1148 83.50445502469955 L 1149 85.72344059285945 L 1150 87.97469571211246 L 1151 90.25799068793998 L 1152 92.5730925568115 L 1153 94.91976510995391 L 1154 97.29776891745144 L 1155 99.70686135267624 L 1156 102.1467966170407 L 1157 104.6173257650783 L 1158 107.11819672984251 L 1159 109.64915434862525 L 1160 112.20994038899119 L 1161 114.80029357512439 L 1162 117.41994961448819 L 1163 120.06864122478777 L 1164 122.74609816124314 L 1165 125.45204724416124 L 1166 128.1862123868085 L 1167 130.94831462357928 L 1168 133.73807213846084 L 1169 136.55520029378346 L 1170 139.39941165926433 L 1171 142.27041604133308 L 1172 145.1679205127403 L 1173 148.09162944244423 L 1174 151.04124452577594 L 1175 154.01646481487197 L 1176 157.0169867493821 L 1177 160.04250418744107 L 1178 163.09270843690368 L 1179 166.1672882868405 L 1180 169.26593003929233 L 1181 172.3883175412736 L 1182 175.53413221703144 L 1183 178.70305310054934 L 1184 181.89475686829493 L 1185 185.1089178722083 L 1186 188.34520817292974 L 1187 191.60329757325596 L 1188 194.8828536518321 L 1189 198.18354179706813 L 1190 201.50502524127904 L 1191 204.84696509504502 L 1192 208.20902038178767 L 1193 211.59084807256207 L 1194 214.99210312105228 L 1195 218.41243849877864 L 1196 221.8515052305043 L 1197 225.30895242984104 L 1198 228.78442733504937 L 1199 232.27757534503323 L 1200 235.78804005551592 L 1201 239.3154632954065 L 1202 242.859485163343 L 1203 246.41974406441327 L 1204 249.99587674704742 L 1205 253.58751834008285 L 1206 257.19430238998825 L 1207 260.81586089825487 L 1208 264.451824358943 L 1209 268.1018217963822 L 1210 271.76548080302115 L 1211 275.4424275774271 L 1212 279.1322869624203 L 1213 282.8346824833542 L 1214 286.5492363865259 L 1215 290.2755696777185 L 1216 294.0133021608689 L 1217 297.76205247686164 L 1218 301.52143814243504 L 1219 305.29107558920805 L 1220 309.0705802028154 L 1221 312.8595663621491 L 1222 316.65764747870367 L 1223 320.46443603601836 L 1224 324.2795436292186 L 1225 328.1025810046403 L 1226 331.93315809954794 L 1227 335.7708840819321 L 1228 339.6153673903855 L 1229 343.46621577405335 L 1230 347.32303633265735 L 1231 351.1854355565788 L 1232 355.053019367011 L 1233 358.9253931561664 L 1234 362.80216182753816 L 1235 366.68292983621075 L 1236 370.56730122922033 L 1237 374.4548796859493 L 1238 378.34526855856564 L 1239 382.2380709124917 L 1240 386.13288956690366 L 1241 390.02932713525456 L 1242 393.9269860658227 L 1243 397.8254686822691 L 1244 401.7243772242154 L 1245 405.623313887826 L 1246 409.5218808663962 L 1247 413.4196803909395 L 1248 417.3163147707742 L 1249 421.211386434096 L 1250 425.10449796854425 L 1251 428.9952521617496 L 1252 432.8832520418608 L 1253 436.76810091804765 L 1254 440.6494024209771 L 1255 444.52676054325104 L 1256 448.39977967981343 L 1257 452.26806466831283 L 1258 456.1312208294208 L 1259 459.9888540071006 L 1260 463.8405706088226 L 1261 467.6859776457244 L 1262 471.5246827727037 L 1263 475.3562943284516 L 1264 479.18042137541306 L 1265 482.99667373967395 L 1266 486.80466205076965 L 1267 490.6039977814152 L 1268 494.3942932871423 L 1269 498.1751618458534 L 1270 501.94621769727786 L 1271 505.7070760823311 L 1272 509.4573532823707 L 1273 513.1966666583496 L 1274 516.9246346898526 L 1275 520.6408770140255 L 1276 524.3450144643824 L 1277 528.0366691094924 L 1278 531.7154642915386 L 1279 535.3810246647513 L 1280 539.0329762336997 L 1281 542.6709463914544 L 1282 546.2945639576026 L 1283 549.9034592161197 L 1284 553.4972639530907 L 1285 557.0756114942817 L 1286 560.6381367425471 L 1287 564.1844762150834 L 1288 567.7142680805142 L 1289 571.2271521958079 L 1290 574.7227701430227 L 1291 578.2007652658754 L 1292 581.6607827061333 L 1293 585.1024694398163 L 1294 588.5254743132189 L 1295 591.9294480787365 L 1296 595.3140434305001 L 1297 598.6789150398107 L 1298 602.0237195903752 L 1299 605.3481158133314 L 1300 608.6517645220704 L 1301 611.9343286468418 L 1302 615.1954732691462 L 1303 618.4348656559055 L 1304 621.6521752934133 L 1305 624.8470739210549 L 1306 628.0192355648007 L 1307 631.1683365704652 L 1308 634.2940556367289 L 1309 637.3960738479207 L 1310 640.4740747065581 L 1311 643.5277441656362 L 1312 646.5567706606724 L 1313 649.5608451414943 L 1314 652.5396611037717 L 1315 655.492914620289 L 1316 658.4203043719567 L 1317 661.3215316785518 L 1318 664.1963005291939 L 1319 667.0443176125465 L 1320 669.8652923467437 L 1321 672.658936909038 L 1322 675.424966265166 L 1323 678.1630981984327 L 1324 680.8730533385029 L 1325 683.5545551899068 L 1326 686.2073301602502 L 1327 688.8311075881302 L 1328 691.4256197707484 L 1329 693.9906019912279 L 1330 696.5257925456181 L 1331 699.0309327695993 L 1332 701.505767064873 L 1333 703.9500429252404 L 1334 706.3635109623656 L 1335 708.7459249312215 L 1336 711.0970417552124 L 1337 713.4166215509761 L 1338 715.7044276528584 L 1339 717.9602266370612 L 1340 720.1837883454564 L 1341 722.3748859090724 L 1342 724.5332957712375 L 1343 726.6587977103916 L 1344 728.7511748625549 L 1345 730.810213743454 L 1346 732.835704270304 L 1347 734.8274397832438 L 1348 736.7852170664194 L 1349 738.7088363687205 L 1350 740.5981014241588 L 1351 742.4528194718948 L 1352 744.2728012759032 L 1353 746.0578611442829 L 1354 747.8078169482008 L 1355 749.5224901404754 L 1356 751.201705773794 L 1357 752.8452925185618 L 1358 754.4530826803837 L 1359 756.0249122171723 L 1360 757.5606207558878 L 1361 759.0600516088978 L 1362 760.5230517899656 L 1363 761.9494720298594 L 1364 763.339166791582 L 1365 764.691994285219 L 1366 766.0078164824074 L 1367 767.2864991304168 L 1368 768.5279117658479 L 1369 769.7319277279436 L 1370 770.8984241715119 L 1371 772.0272820794602 L 1372 773.1183862749384 L 1373 774.17162543309 L 1374 775.1868920924105 L 1375 776.1640826657124 L 1376 777.1030974506933 L 1377 778.0038406401089 L 1378 778.8662203315482 L 1379 779.6901485368103 L 1380 780.4755411908811 L 1381 781.2223181605116 L 1382 781.9304032523927 L 1383 782.5997242209299 L 1384 783.2302127756145 L 1385 783.821804587991 L 1386 784.37443929822 L 1387 784.8880605212377 L 1388 785.3626158525083 L 1389 785.7980568733707 L 1390 786.1943391559789 L 1391 786.5514222678352 L 1392 786.8692697759145 L 1393 787.1478492503826 L 1394 787.3871322679046 L 1395 787.5870944145448 L 1396 787.747715288258 L 1397 787.8689785009706 L 1398 787.9508716802532 L 1399 787.9933864705824 L 1400 787.9965185341939 L 1401 787.9602675515248 L 1402 787.8846372212461 L 1403 787.7696352598853 L 1404 787.6152734010393 L 1405 787.4215673941771 L 1406 787.1885370030334 L 1407 786.916206003591 L 1408 786.6046021816558 L 1409 786.2537573300216 L 1410 785.8637072452265 L 1411 785.4344917239001 L 1412 784.9661545587037 L 1413 784.4587435338617 L 1414 783.9123104202863 L 1415 783.3269109702952 L 1416 782.7026049119238 L 1417 782.0394559428303 L 1418 781.3375317237975 L 1419 780.5969038718288 L 1420 779.8176479528414 L 1421 778.9998434739566 L 1422 778.1435738753869 L 1423 777.2489265219234 L 1424 776.315992694022 L 1425 775.3448675784898 L 1426 774.3356502587731 L 1427 773.2884437048483 L 1428 772.2033547627159 L 1429 771.0804941434988 L 1430 769.9199764121468 L 1431 768.7219199757471 L 1432 767.4864470714441 L 1433 766.2136837539671 L 1434 764.9037598827683 L 1435 763.5568091087746 L 1436 762.1729688607506 L 1437 760.7523803312772 L 1438 759.2951884623446 L 1439 757.8015419305659 L 1440 756.2715931320053 L 1441 754.7054981666315 L 1442 753.1034168223896 L 1443 751.4655125588982 L 1444 749.791952490772 L 1445 748.0829073705709 L 1446 746.3385515713778 L 1447 744.5590630690083 L 1448 742.7446234238514 L 1449 740.895417762345 L 1450 739.0116347580877 L 1451 737.0934666125885 L 1452 735.1411090356555 L 1453 733.1547612254299 L 1454 731.13462584806 L 1455 729.0809090170242 L 1456 726.9938202721012 L 1457 724.8735725579901 L 1458 722.7203822025854 L 1459 720.5344688949021 L 1460 718.3160556626651 L 1461 716.0653688495502 L 1462 713.7826380920919 L 1463 711.4680962962542 L 1464 709.1219796136663 L 1465 706.7445274175276 L 1466 704.3359822781865 L 1467 701.89658993839 L 1468 699.4265992882101 L 1469 696.9262623396509 L 1470 694.395834200935 L 1471 691.8355730504747 L 1472 689.2457401105316 L 1473 686.6265996205626 L 1474 683.9784188102609 L 1475 681.3014678722898 L 1476 678.596019934716 L 1477 675.8623510331406 L 1478 673.1007400825379 L 1479 670.3114688487959 L 1480 667.4948219199689 L 1481 664.6510866772402 L 1482 661.7805532656023 L 1483 658.8835145642506 L 1484 655.9602661567044 L 1485 653.011106300647 L 1486 650.0363358974948 L 1487 647.0362584616962 L 1488 644.0111800897645 L 1489 640.9614094290478 L 1490 637.8872576462347 L 1491 634.789038395611 L 1492 631.6670677870538 L 1493 628.5216643537807 L 1494 625.3531490198492 L 1495 622.1618450674141 L 1496 618.948078103741 L 1497 615.7121760279871 L 1498 612.454468997745 L 1499 609.1752893953565 L 1500 605.8749717939997 L 1501 602.5538529235542 L 1502 599.2122716362411 L 1503 595.8505688720544 L 1504 592.4690876239724 L 1505 589.0681729029634 L 1506 585.6481717027832 L 1507 582.2094329645736 L 1508 578.7523075412564 L 1509 575.2771481617406 L 1510 571.7843093949302 L 1511 568.2741476135498 L 1512 564.7470209577823 L 1513 561.2032892987299 L 1514 557.643314201694 L 1515 554.0674588892878 L 1516 550.4760882043752 L 1517 546.8695685728463 L 1518 543.2482679662314 L 1519 539.6125558641567 L 1520 535.962803216647 L 1521 532.2993824062762 L 1522 528.6226672101758 L 1523 524.933032761897 L 1524 521.2308555131362 L 1525 517.5165131953263 L 1526 513.7903847810966 L 1527 510.0528504456049 L 1528 506.3042915277516 L 1529 502.54509049126966 L 1530 498.77563088570224 L 1531 494.9962973072698 L 1532 491.20747535963017 L 1533 487.40955161453326 L 1534 483.60291357238304 L 1535 479.78794962269853 L 1536 475.96504900448735 L 1537 472.1346017665316 L 1538 468.29699872759227 L 1539 464.45263143653136" stroke-linecap="round" stroke-linejoin="round" stroke-miterlimit="10" stroke-width="8"/></g></svg>